<svg width="40" height="72" viewBox="0 0 40 72" fill="none" xmlns="http://www.w3.org/2000/svg">
<path opacity="0.6" d="M20.2933 39.4495C20.2933 39.4495 8.49677 34.01 8.49677 26.7224C8.49677 19.4347 23.8027 14.7456 23.8027 9.04727C23.8027 3.3489 17.1279 0 17.1279 0C17.1279 0 27.6727 3.60449 27.6727 10.8135C27.6727 18.0224 17.5735 22.8852 16.6101 27.4728C15.2699 33.8429 20.2933 39.4495 20.2933 39.4495Z" fill="#EBEBEB"/>
<path opacity="0.6" d="M19.71 39.4494C19.71 39.4494 31.5065 35.1732 31.5065 29.4421C31.5065 23.7109 16.2038 20.0245 16.2038 15.5451C16.2038 11.0657 22.8786 8.43445 22.8786 8.43445C22.8786 8.43445 12.3339 11.2656 12.3339 16.9279C12.3339 22.5903 23.9239 26.4897 24.753 31.0772C25.5656 35.6025 19.71 39.4494 19.71 39.4494Z" fill="#EBEBEB"/>
<path d="M37.9552 57.4162C37.2417 58.4895 36.2411 59.3408 35.0674 59.8732C33.8936 60.4057 32.594 60.5977 31.3164 60.4276C30.894 60.3668 30.4774 60.2704 30.0712 60.1392C29.4597 59.9411 28.871 59.6786 28.3149 59.3561L29.7206 57.1442C30.0188 57.3228 30.3325 57.4742 30.6578 57.5964C33.6069 58.7204 35.301 56.5053 35.6287 56.0006C37.1557 53.7364 37.4506 48.6835 35.6582 46.8256C35.537 46.6879 35.0422 46.4782 33.1187 46.9435C32.7648 47.0353 32.3617 47.1369 31.9063 47.2712C31.5549 47.4009 31.1899 47.4899 30.8184 47.5366L30.6906 46.2456L30.4808 44.9611C30.6054 44.9349 30.8085 44.8759 31.051 44.7972C31.9374 44.5098 32.8444 44.2907 33.7642 44.1419C35.1863 43.9485 36.697 44.0534 37.68 45.0889C40.5931 48.1429 39.8656 54.5752 37.9552 57.4162Z" fill="#455A64"/>
<path d="M31.2051 38.5254H8.79498V67.8364H31.2051V38.5254Z" fill="#455A64"/>
<path opacity="0.2" d="M11.8916 38.5254H8.79498V67.8364H11.8916V38.5254Z" fill="white"/>
<path opacity="0.6" d="M31.2051 67.8364H8.79498L26.8338 64.1009L28.1118 38.5254H31.2051V67.8364Z" fill="#37474F"/>
<path d="M34.318 70.7824H5.68526L0 67.8365H40L34.318 70.7824Z" fill="#455A64"/>
<path d="M34.3147 70.7823H5.66888V71.7293H34.3147V70.7823Z" fill="#455A64"/>
<path opacity="0.1" d="M5.66888 70.7823V71.1493L34.3147 71.4049V70.7823H5.66888Z" fill="black"/>
</svg>
